<svg width="121" height="37" viewBox="0 0 121 37" fill="none" xmlns="http://www.w3.org/2000/svg">
<path fill-rule="evenodd" clip-rule="evenodd" d="M7.77011 0.751506C13.5372 -1.36762 16.7993 1.54826 17.8318 2.73297L17.836 2.73506C18.007 2.93112 17.9027 3.23772 17.6482 3.29195C16.6575 3.5047 15.7127 3.89682 15.2934 4.08454C15.1599 4.14294 15.0056 4.10957 14.9055 4.00319C12.4902 1.40643 6.06814 3.45881 4.41414 4.04491C4.27857 4.09288 4.15759 3.94271 4.23268 3.82173C5.54879 1.70261 7.77011 0.751506 7.77011 0.751506ZM13.566 5.47141C13.1634 5.79053 12.4626 6.44337 12.2353 7.25264C12.1811 7.44661 11.9683 7.54464 11.7806 7.47164C11.1215 7.20884 9.9493 6.50594 10.8983 5.0188C11.8682 3.49829 13.08 4.43479 13.5994 4.96665C13.7412 5.11057 13.7245 5.34626 13.566 5.47141ZM0.0468181 14.5883C-0.622708 7.49047 6.49805 5.23577 8.7298 4.70599L8.72772 4.70808C8.97592 4.64967 9.19701 4.87076 9.13652 5.11897C8.95923 5.85524 9.14695 6.8418 9.27835 7.37992C9.32841 7.58015 9.18449 7.77622 8.97801 7.79707C4.69179 8.23508 1.22735 13.2367 0.326309 14.655C0.249136 14.776 0.0593326 14.7322 0.0468181 14.5883ZM23.1395 10.2004C23.2323 10.3222 23.3218 10.4398 23.4088 10.5544C23.6541 10.8771 23.8805 11.175 24.1114 11.4706C24.3826 11.8168 24.3158 12.3216 23.9529 12.5698C22.4512 13.6022 20.8431 13.7211 19.1536 13.0995C19.0211 13.0507 18.8812 13.0215 18.7276 12.9894L18.7276 12.9894L18.7276 12.9894C18.6514 12.9735 18.5719 12.9569 18.4882 12.9369C18.968 14.4011 20.4259 15.6317 22.1216 14.983C22.4473 14.8587 22.7797 14.7521 23.1137 14.645L23.1137 14.6449C23.2675 14.5956 23.4215 14.5462 23.5754 14.4949C23.8111 15.8632 22.7786 16.8164 21.5084 17.0166C20.501 17.1751 19.6229 16.8414 18.8095 16.2636C18.1504 15.7964 17.4829 15.3355 16.803 14.8975C15.4097 14.0006 14.1999 12.9035 13.7974 11.2599C13.3948 9.6226 13.3594 7.94983 14.567 6.57323C15.6975 5.28424 17.2118 4.71066 18.8887 4.94217C19.4017 5.01268 19.8813 5.33346 20.3569 5.6516C20.5426 5.77582 20.7277 5.89964 20.914 6.00799C21.0078 6.06222 21.0808 6.25203 21.0725 6.373C21.0245 7.31159 21.6753 7.59734 22.3928 7.86014C22.7888 8.00477 23.1808 8.16115 23.5727 8.3175L23.5727 8.31752C24.0229 8.49712 24.473 8.67668 24.929 8.83836C25.3066 8.97185 25.2878 9.24508 25.2127 9.49328C25.1731 9.62051 24.9353 9.7394 24.7705 9.76652C24.383 9.83197 23.9911 9.87467 23.5387 9.92397C23.4432 9.93437 23.3451 9.94506 23.2438 9.95632C23.1249 9.96884 23.0644 10.1086 23.1374 10.2045L23.1395 10.2004ZM20.234 9.24091C20.3321 9.20962 20.38 9.09699 20.33 9.00522L20.2829 8.91985L20.2828 8.91974L20.2828 8.91972C20.0197 8.4425 19.7615 7.97426 19.4977 7.50973C19.4498 7.4263 19.3517 7.31784 19.2746 7.31576C18.5654 7.30324 17.8563 7.30533 17.1888 7.30742C17.0658 7.30742 16.9907 7.43882 17.047 7.54728C17.704 8.79039 18.5279 9.7832 20.2361 9.24299L20.234 9.24091ZM11.2548 32.9848H11.697C12.8546 32.9848 13.7911 32.0462 13.7911 30.8907V20.0344C13.7911 19.8342 14.0309 19.7299 14.1769 19.8696L27.2963 32.4133C27.6822 32.7804 28.1932 32.9869 28.7271 32.9869H29.0629C30.2059 32.9869 31.132 32.0608 31.132 30.9178V9.38663C31.132 8.39798 30.3311 7.59705 29.3424 7.59705C28.3538 7.59705 27.5529 8.39798 27.5529 9.38663V28.3086L15.3241 16.0798C15.0154 15.7711 14.5357 15.7002 14.1561 15.915C12.5375 16.8265 8.84157 20.3118 10.9232 32.7053C10.9503 32.868 11.0921 32.9869 11.2548 32.9869V32.9848ZM13.5084 14.0463C13.1142 13.6604 12.8681 13.2057 12.7388 12.9137C12.6637 12.7468 12.4718 12.6717 12.3028 12.7385C10.799 13.3413 4.47919 16.3114 4.29773 23.7659C4.12044 31.0138 7.88105 32.6094 8.96355 32.9181C9.08453 32.9515 9.19298 32.8326 9.1471 32.7158C4.65856 20.971 11.6375 15.7086 13.45 14.5781C13.6377 14.4613 13.6669 14.2006 13.5084 14.0463ZM11.9668 9.3512C11.9146 9.72037 11.8729 10.2856 11.9793 10.8634C12.0106 11.0281 11.9105 11.1908 11.7519 11.243C10.0979 11.7874 2.05111 14.9765 2.48077 25.3969C2.48703 25.5491 2.29305 25.6159 2.20545 25.4928C1.38158 24.3352 -0.693742 20.6435 1.8175 15.477C4.32875 10.3106 9.97488 9.14262 11.5955 8.96742C11.8166 8.94239 12.0001 9.13428 11.9689 9.35328L11.9668 9.3512ZM24.6802 10.1483L23.871 10.2484C23.7917 10.2588 23.7521 10.3506 23.8021 10.4152L24.2923 11.0576C24.3403 11.1202 24.4383 11.1077 24.4696 11.0347L24.7887 10.2922C24.82 10.2192 24.7595 10.1378 24.6802 10.1483ZM81.9847 22.9088C81.9847 22.5041 81.8575 22.1829 81.603 21.9431L81.6051 21.9389C81.3506 21.7011 81.0148 21.5802 80.5956 21.5802C80.1763 21.5802 79.8405 21.699 79.5861 21.9389C79.3316 22.1788 79.2044 22.4937 79.2044 22.8817V23.4657C78.8769 22.8525 78.3972 22.3769 77.7694 22.0411C77.1416 21.7053 76.422 21.5364 75.6148 21.5364C74.6574 21.5364 73.8065 21.7637 73.0577 22.2205C72.3089 22.6773 71.729 23.3197 71.3182 24.1498C70.9073 24.9799 70.7008 25.9352 70.7008 27.0115C70.7008 28.0877 70.9093 29.0388 71.3286 29.8606C71.7478 30.6845 72.3277 31.3227 73.0681 31.7795C73.8085 32.2363 74.6574 32.4636 75.6148 32.4636C76.422 32.4636 77.1416 32.2947 77.7694 31.9589C78.3972 31.623 78.8748 31.1475 79.2044 30.5343V31.9714C79.2044 33.8861 78.2241 34.8434 76.2656 34.8434C75.7107 34.8434 75.2206 34.783 74.7951 34.6641C74.3696 34.5452 73.8857 34.3742 73.3476 34.1489C73.139 34.0592 72.9367 33.9799 72.7427 33.9132C72.5467 33.8465 72.384 33.8131 72.2484 33.8131C71.9939 33.8131 71.7874 33.9111 71.631 34.1051C71.4746 34.3012 71.3953 34.5619 71.3953 34.8914C71.3953 35.3545 71.6727 35.7508 72.2255 36.0803C73.3163 36.6935 74.6783 37.0001 76.3094 37.0001C78.1782 37.0001 79.5923 36.5579 80.5497 35.6757C81.505 34.7934 81.9847 33.4919 81.9847 31.7711V22.9088ZM79.2002 27.0156C79.2002 28.0335 78.9499 28.8323 78.4493 29.4163C77.9488 30.0003 77.2334 30.2923 76.3511 30.2923C75.4688 30.2923 74.7742 30.0003 74.2653 29.4163C73.7564 28.8323 73.5019 28.0481 73.5019 27.0156C73.5019 25.9832 73.7564 25.176 74.2653 24.592C74.7722 24.008 75.4542 23.716 76.3511 23.716C77.2479 23.716 77.9488 24.008 78.4493 24.592C78.9499 25.176 79.2002 25.9978 79.2002 27.0156ZM44.3768 30.8536C44.3768 30.5241 44.2976 30.2613 44.1412 30.0673L44.1432 30.0694C43.9868 29.8754 43.7803 29.7774 43.5259 29.7774C43.3173 29.7774 42.9877 29.8963 42.5393 30.1361C42.0763 30.3468 41.6612 30.5116 41.2941 30.6305C40.927 30.7493 40.5036 30.8098 40.026 30.8098C39.0832 30.8098 38.3657 30.5658 37.8714 30.0798C37.3771 29.5938 37.0851 28.8346 36.9954 27.8022H43.6155C44.185 27.8022 44.4686 27.4789 44.4686 26.8365C44.4686 25.7581 44.2684 24.8237 43.8638 24.0311C43.4591 23.2386 42.8897 22.6253 42.1576 22.1915C41.4255 21.7577 40.61 21.5407 39.5775 21.5407C38.5451 21.5407 37.6211 21.7806 36.8056 22.2582C35.99 22.7359 35.3581 23.4096 34.9096 24.2773C34.4612 25.1449 34.2359 26.1398 34.2359 27.262C34.2359 29.0265 34.7511 30.4177 35.7836 31.4356C36.816 32.4534 38.2155 32.9623 39.9801 32.9623C40.5641 32.9623 41.1773 32.8747 41.8197 32.7037C42.4621 32.5327 43.0378 32.3032 43.5467 32.0196C44.0994 31.7067 44.3768 31.3167 44.3768 30.8536ZM36.9933 26.2983C37.083 25.3994 37.3562 24.7132 37.813 24.2335H37.8109C38.2677 23.7558 38.8934 23.516 39.6401 23.516C40.3868 23.516 40.9708 23.7516 41.3901 24.223C41.8093 24.6944 42.0345 25.3869 42.0637 26.2983H36.9933ZM56.2243 32.5242C56.4788 32.2635 56.606 31.9674 56.606 31.6378L56.6039 31.6357C56.6039 31.2916 56.4683 30.985 56.1993 30.7159L52.9017 27.1472L55.999 23.7808C56.2681 23.5117 56.4037 23.2051 56.4037 22.861C56.4037 22.5168 56.2806 22.2206 56.0345 21.9745C55.7884 21.7263 55.5068 21.6032 55.1481 21.6032C54.7893 21.6032 54.466 21.7534 54.1824 22.0517L51.1976 25.3284L48.2129 22.0517C47.9272 21.7534 47.606 21.6032 47.2472 21.6032C46.9177 21.6032 46.6257 21.7284 46.3712 21.9745C46.1167 22.2206 45.9895 22.5168 45.9895 22.861C45.9895 23.2051 46.1251 23.5117 46.3942 23.7808L49.4915 27.1472L46.2148 30.7159C45.9457 30.985 45.8101 31.3062 45.8101 31.6357C45.8101 31.9653 45.9374 32.2573 46.1918 32.5117C46.4463 32.7662 46.7383 32.8934 47.0678 32.8934C47.4287 32.8934 47.7499 32.7453 48.0336 32.445L51.1976 28.9451L54.3617 32.445C54.6308 32.7599 54.9541 32.9164 55.3274 32.9164C55.6716 32.9164 55.9698 32.785 56.2243 32.5242ZM60.4557 32.2657C59.6109 31.8026 58.956 31.1373 58.493 30.2675C58.0299 29.3999 57.7984 28.3904 57.7984 27.239C57.7984 26.0877 58.0299 25.0824 58.493 24.2209C58.956 23.3616 59.6109 22.6983 60.4557 22.2353C61.3004 21.7723 62.2849 21.5407 63.407 21.5407C64.5291 21.5407 65.5115 21.7723 66.3584 22.2353C67.2031 22.6983 67.8538 23.3616 68.3106 24.2209C68.7674 25.0803 68.9947 26.0877 68.9947 27.239C68.9947 28.3904 68.7674 29.4019 68.3106 30.2675C67.8538 31.1352 67.2031 31.8006 66.3584 32.2657C65.5136 32.7287 64.5291 32.9602 63.407 32.9602C62.2849 32.9602 61.3004 32.7287 60.4557 32.2657ZM65.4719 29.8879C65.9495 29.2893 66.1894 28.407 66.1894 27.239C66.1894 26.071 65.9495 25.2075 65.4719 24.6026C64.9922 23.9978 64.306 23.6932 63.407 23.6932C62.5081 23.6932 61.8177 23.9957 61.3317 24.6026C60.8457 25.2096 60.6017 26.0877 60.6017 27.239C60.6017 28.3904 60.8415 29.2893 61.3192 29.8879C61.7968 30.4865 62.4851 30.7848 63.3841 30.7848C64.283 30.7848 64.9922 30.4865 65.4698 29.8879H65.4719ZM94.1802 30.0673C94.3367 30.2613 94.4159 30.5241 94.4159 30.8536C94.4159 31.3167 94.1385 31.7067 93.5858 32.0196C93.0769 32.3032 92.5012 32.5327 91.8588 32.7037C91.2164 32.8747 90.6032 32.9623 90.0191 32.9623C88.2546 32.9623 86.8551 32.4534 85.8226 31.4356C84.7902 30.4177 84.275 29.0265 84.275 27.262C84.275 26.1398 84.5002 25.1449 84.9487 24.2773C85.3971 23.4096 86.0291 22.7359 86.8446 22.2582C87.6602 21.7806 88.5841 21.5407 89.6166 21.5407C90.649 21.5407 91.4646 21.7577 92.1967 22.1915C92.9288 22.6253 93.4982 23.2386 93.9028 24.0311C94.3074 24.8237 94.5098 25.7581 94.5098 26.8365C94.5098 27.4789 94.2261 27.8022 93.6567 27.8022H87.0365C87.1262 28.8346 87.4182 29.5938 87.9125 30.0798C88.4069 30.5658 89.1244 30.8098 90.0671 30.8098C90.5448 30.8098 90.9682 30.7493 91.3353 30.6305C91.7023 30.5116 92.1174 30.3468 92.5804 30.1361C93.0289 29.8963 93.3584 29.7774 93.567 29.7774C93.8215 29.7774 94.028 29.8754 94.1844 30.0694L94.1802 30.0673ZM87.8521 24.2335C87.3953 24.7132 87.122 25.3994 87.0323 26.2983H92.1028C92.0736 25.3869 91.8483 24.6944 91.4291 24.223C91.0099 23.7516 90.4259 23.516 89.6792 23.516C88.9325 23.516 88.3067 23.7558 87.85 24.2335H87.8521ZM107.073 26.0521C107.073 24.5399 106.75 23.4115 106.107 22.6628V22.6648C105.465 21.916 104.485 21.5427 103.169 21.5427C102.376 21.5427 101.665 21.7075 101.037 22.037C100.409 22.3666 99.9065 22.838 99.5331 23.4512V22.8442C99.5331 22.4688 99.408 22.1663 99.1618 21.9348C98.9157 21.7033 98.5966 21.5865 98.2087 21.5865C97.7748 21.5865 97.4307 21.7054 97.1762 21.9453C96.9218 22.1851 96.7945 22.5001 96.7945 22.888V31.571C96.7945 31.9902 96.9176 32.3177 97.1637 32.5576C97.4119 32.7953 97.7519 32.9163 98.1857 32.9163C98.6196 32.9163 98.9637 32.7974 99.2182 32.5576C99.4726 32.3198 99.5999 31.9902 99.5999 31.571V26.5673C99.5999 25.7142 99.8439 25.0342 100.33 24.5253C100.816 24.0164 101.465 23.7619 102.272 23.7619C102.96 23.7619 103.465 23.958 103.786 24.346C104.107 24.736 104.268 25.3555 104.268 26.2085V31.571C104.268 31.9902 104.395 32.3177 104.649 32.5576C104.904 32.7953 105.248 32.9163 105.682 32.9163C106.116 32.9163 106.458 32.7953 106.704 32.5576C106.95 32.3198 107.073 31.9902 107.073 31.571V26.0521ZM118.054 21.797C118.257 21.6697 118.478 21.6051 118.716 21.6051C119.06 21.6051 119.37 21.7219 119.646 21.9534C119.923 22.1849 120.061 22.4727 120.061 22.8169C120.061 22.9817 120.017 23.1527 119.925 23.3321L113.799 36.1678C113.545 36.6767 113.149 36.9312 112.611 36.9312C112.266 36.9312 111.964 36.8227 111.701 36.6058C111.438 36.3889 111.309 36.1156 111.309 35.7861C111.309 35.6213 111.353 35.4336 111.445 35.225L112.971 32.0171L108.798 23.3342C108.723 23.184 108.685 23.0129 108.685 22.819C108.685 22.4748 108.831 22.1828 109.123 21.943C109.415 21.7031 109.747 21.5842 110.122 21.5842C110.377 21.5842 110.608 21.6489 110.817 21.7761C111.025 21.9033 111.19 22.1015 111.311 22.3705L114.452 29.3036L117.57 22.3935C117.689 22.1244 117.85 21.9263 118.052 21.799L118.054 21.797Z" fill="#ffffff"/>
</svg>
