<svg width="180" height="180" viewBox="0 0 180 180" fill="none" xmlns="http://www.w3.org/2000/svg">
<rect width="180" height="180" rx="16" fill="white"/>
<path fill-rule="evenodd" clip-rule="evenodd" d="M100.332 27.4637C95.6227 22.0601 80.7438 8.76043 54.4393 18.426C54.4393 18.426 44.3075 22.7641 38.3046 32.4297C37.9621 32.9815 38.5139 33.6665 39.1322 33.4476C46.6764 30.7744 75.968 21.4132 86.9845 33.2574C87.4412 33.7426 88.1452 33.8948 88.754 33.6284C90.6662 32.7722 94.9758 30.9837 99.4946 30.0133C100.655 29.766 101.131 28.3675 100.351 27.4732L100.332 27.4637ZM74.7901 48.08C75.8271 44.3889 79.0236 41.4112 80.8597 39.9556C81.5827 39.3848 81.6588 38.3098 81.0119 37.6534C78.643 35.2275 73.1158 30.956 68.692 37.8912C64.3635 44.6743 69.71 47.8803 72.7162 49.0789C73.5724 49.4119 74.5428 48.9648 74.7901 48.08ZM58.8059 36.4632C48.6266 38.8796 16.1479 49.1635 19.2017 81.5376C19.2588 82.194 20.1245 82.3938 20.4765 81.842C24.5863 75.3729 40.388 52.5598 59.938 50.562C60.8798 50.4669 61.5362 49.5726 61.3079 48.6593C60.7085 46.2049 59.8523 41.7051 60.661 38.3468C60.9369 37.2147 59.9285 36.2063 58.7964 36.4727L58.8059 36.4632ZM125.727 63.1417C125.33 62.6193 124.922 62.0826 124.498 61.527L124.489 61.546C124.156 61.1084 124.432 60.471 124.974 60.4139C125.435 60.3627 125.882 60.314 126.316 60.2667L126.319 60.2664C128.383 60.0415 130.17 59.8468 131.938 59.5482C132.689 59.4245 133.774 58.8823 133.955 58.302C134.297 57.1699 134.383 55.9236 132.661 55.3148C130.581 54.5773 128.528 53.7583 126.474 52.9391L126.474 52.9391C124.687 52.2259 122.899 51.5127 121.092 50.853C117.82 49.6543 114.852 48.351 115.071 44.07C115.109 43.5182 114.776 42.6525 114.347 42.4051C113.498 41.9109 112.654 41.3462 111.807 40.7796C109.637 39.3285 107.45 37.8653 105.11 37.5438C97.4613 36.4878 90.5545 39.104 85.3983 44.9832C79.89 51.2621 80.0518 58.8918 81.8879 66.3598C83.7239 73.8563 89.2417 78.8604 95.5966 82.9511C98.698 84.9489 101.742 87.0514 104.748 89.1824C108.459 91.8176 112.464 93.3397 117.059 92.6167C122.852 91.7034 127.562 87.3558 126.487 81.115C125.785 81.3488 125.083 81.5741 124.382 81.799L124.381 81.7994L124.38 81.7994C122.857 82.288 121.341 82.7745 119.856 83.3412C112.121 86.2998 105.472 80.6869 103.283 74.0085C103.665 74.1 104.028 74.1758 104.375 74.2483C105.076 74.3947 105.714 74.528 106.318 74.7506C114.024 77.5856 121.359 77.0433 128.208 72.3342C129.864 71.2021 130.168 68.8999 128.931 67.3206C127.878 65.9728 126.846 64.6146 125.728 63.1428L125.727 63.1417ZM111.684 56.0758C111.912 56.4944 111.693 57.0081 111.246 57.1508L111.256 57.1604C103.464 59.6243 99.7064 55.096 96.7097 49.426C96.4528 48.9313 96.7953 48.3319 97.3566 48.3319C100.401 48.3224 103.635 48.3129 106.87 48.37C107.222 48.3795 107.669 48.8742 107.888 49.2547C109.089 51.3707 110.265 53.5037 111.464 55.6773L111.465 55.6793L111.466 55.6807L111.466 55.6816L111.468 55.684L111.469 55.6872L111.47 55.6881L111.684 56.0758ZM72.3552 165.45H70.3384V165.46C69.5963 165.46 68.9494 164.918 68.8258 164.176C59.3314 107.647 76.1891 91.7503 83.5715 87.593C85.3029 86.6131 87.491 86.9365 88.899 88.3445L144.676 144.121V57.8161C144.676 53.3068 148.329 49.6536 152.838 49.6536C157.348 49.6536 161.001 53.3068 161.001 57.8161V156.023C161.001 161.236 156.777 165.46 151.564 165.46H150.032C147.597 165.46 145.266 164.518 143.506 162.844L83.6666 105.63C83.0007 104.993 81.9066 105.469 81.9066 106.382V155.899C81.9066 161.169 77.6351 165.45 72.3552 165.45ZM77.0717 73.9026C77.6616 75.2345 78.7842 77.3084 80.5822 79.0684C81.3052 79.7724 81.172 80.9616 80.3158 81.4943C72.0487 86.6506 40.2169 110.653 60.6897 164.223C60.899 164.755 60.4043 165.298 59.8525 165.145C54.9151 163.737 37.7625 156.46 38.5711 123.401C39.3988 89.3999 68.2243 75.8529 75.0835 73.1035C75.854 72.7991 76.7293 73.1416 77.0717 73.9026ZM73.6464 64.549C73.1612 61.9138 73.3515 59.3357 73.5893 57.6518L73.5988 57.6613C73.7415 56.6624 72.9044 55.7872 71.896 55.9013C64.5041 56.7005 38.7514 62.028 27.2972 85.5926C15.8431 109.157 25.3089 125.996 29.0667 131.276C29.4663 131.837 30.351 131.533 30.3225 130.838C28.3627 83.3094 65.0653 68.7634 72.6095 66.2804C73.3325 66.0426 73.7891 65.3006 73.6464 64.549ZM127.831 61.7416L131.522 61.2849C131.884 61.2374 132.159 61.6084 132.017 61.9414L130.561 65.3281C130.418 65.6611 129.971 65.7182 129.753 65.4328L127.517 62.5026C127.289 62.2077 127.469 61.7891 127.831 61.7416Z" fill="#2C234D"/>
</svg>
